<svg fill="#000000" version="1.1" id="Capa_1" xmlns="http://www.w3.org/2000/svg" xmlns:xlink="http://www.w3.org/1999/xlink" width="64px" height="64px" viewBox="0 0 89.528 89.529" xml:space="preserve"><g id="SVGRepo_bgCarrier" stroke-width="0"></g><g id="SVGRepo_tracerCarrier" stroke-linecap="round" stroke-linejoin="round"></g><g id="SVGRepo_iconCarrier"> <g> <g> <path d="M44.766,0.001C20.082,0.001,0,20.083,0,44.767c0,0.832,0.027,1.656,0.072,2.479c0,0.004-0.002,0.006-0.002,0.01 c0,0.01,0.005,0.016,0.005,0.023c0.613,11.029,5.244,21,12.442,28.486c0.063,0.09,0.136,0.168,0.224,0.231 c8.135,8.34,19.482,13.53,32.024,13.53c20.02,0,37.008-13.209,42.715-31.368c0.215-0.183,0.354-0.444,0.354-0.748 c0-0.101-0.03-0.188-0.059-0.28c1.133-3.929,1.752-8.074,1.752-12.363C89.532,20.083,69.45,0.001,44.766,0.001z M44.766,2.001 c23.582,0,42.766,19.186,42.766,42.766c0,0.5-0.021,0.994-0.039,1.488H80.52v-8.458c0-0.552-0.448-1-1-1H64.732 c-0.553,0-1,0.448-1,1v8.458h-6.664V19.922c0-0.552-0.448-1-1-1h-1.995c-0.509-5.79-5.377-10.349-11.298-10.349 c-5.92,0-10.79,4.559-11.299,10.349h-1.1c-0.552,0-1,0.448-1,1v26.333h-6.891c1.188-1.289,1.872-2.979,1.872-4.774 c0-3.9-3.174-7.073-7.074-7.073s-7.074,3.173-7.074,7.073c0,1.78,0.686,3.481,1.872,4.774H2.038C2.021,45.761,2,45.267,2,44.767 C2,21.188,21.185,2.001,44.766,2.001z M85.907,56.414H57.069v-8.158h6.663v4.328c0,0.555,0.449,1,1,1H79.52c0.554,0,1-0.445,1-1 v-4.328h6.855C87.148,51.06,86.65,53.787,85.907,56.414z M75.734,74.212H57.069v-4.604V58.414h28.217 C83.271,64.375,79.98,69.75,75.734,74.212z M34.961,74.212v-3.604h15.824v3.604H34.961z M31.376,74.212v-3.604h1.585v3.604H31.376 z M13.799,74.212c-4.247-4.463-7.538-9.838-9.553-15.799h25.13v11.195v4.604H13.799z M14.746,50.2h4.871v1.981h-4.871V50.2z M20.069,45.72c-0.281,0.185-0.45,0.498-0.45,0.834V48.2h-4.871v-1.785c0-0.319-0.154-0.625-0.417-0.812 c-1.329-0.955-2.122-2.496-2.122-4.122c0-2.798,2.276-5.073,5.074-5.073s5.074,2.275,5.074,5.073 C22.358,43.19,21.5,44.775,20.069,45.72z M12.746,48.255v4.926c0,0.553,0.448,1,1,1h6.871c0.552,0,1-0.447,1-1v-4.926h7.758v8.158 H3.625c-0.744-2.627-1.242-5.354-1.471-8.158H12.746z M55.069,20.922v47.687H31.376V20.922H55.069z M33.481,18.922 c0.501-4.688,4.477-8.349,9.294-8.349s8.793,3.662,9.294,8.349H33.481z M52.787,70.612h2.281v3.603h-2.281V70.612z M78.52,38.796 v3.926h-5.396v-3.926H78.52z M65.732,44.722H78.52v6.861H65.732V44.722z M71.125,42.722H65.73v-3.926h5.395V42.722z M15.823,76.212h13.555v1.166c0,0.553,0.448,1,1,1c0.553,0,1-0.447,1-1v-1.166h23.691v1.166c0,0.553,0.448,1,1,1 c0.553,0,1-0.447,1-1v-1.166h16.643c-7.62,7.021-17.788,11.316-28.943,11.316C33.612,87.532,23.445,83.234,15.823,76.212z"></path> <path d="M37.448,51.085c-0.552,0-1,0.445-1,1v9.561c0,0.552,0.448,1,1,1c0.552,0,1-0.448,1-1v-9.561 C38.448,51.534,37.998,51.085,37.448,51.085z"></path> <path d="M41.032,51.085c-0.552,0-1,0.445-1,1v9.561c0,0.552,0.448,1,1,1c0.552,0,1-0.448,1-1v-9.561 C42.032,51.534,41.583,51.085,41.032,51.085z"></path> <path d="M44.617,51.085c-0.552,0-1,0.445-1,1v9.561c0,0.552,0.448,1,1,1c0.552,0,1.001-0.448,1.001-1v-9.561 C45.618,51.534,45.168,51.085,44.617,51.085z"></path> <path d="M48.202,51.085c-0.552,0-1,0.445-1,1v9.561c0,0.552,0.448,1,1,1c0.554,0,1-0.448,1-1v-9.561 C49.202,51.534,48.752,51.085,48.202,51.085z"></path> <path d="M36.72,34.633l6.504,4.35c0,0.021-0.006,0.04-0.006,0.062c0,2.804,2.28,5.083,5.084,5.083 c2.803,0,5.082-2.279,5.082-5.083c0-2.755-2.207-4.993-4.945-5.068l-4.029-6.185c-0.065-0.103-0.151-0.181-0.244-0.249 c-0.61-2.651-2.986-4.637-5.821-4.637c-3.298,0-5.979,2.682-5.979,5.979C32.365,31.619,34.209,33.923,36.72,34.633z M51.385,39.042c0,1.7-1.385,3.083-3.082,3.083c-1.701,0-3.084-1.383-3.084-3.083c0-1.699,1.383-3.083,3.084-3.083 C50,35.96,51.385,37.345,51.385,39.042z M43.994,30.821l2.312,3.551c-1.147,0.492-2.068,1.401-2.601,2.529l-3.499-2.339 C41.984,33.977,43.389,32.583,43.994,30.821z M38.343,24.907c2.193,0,3.979,1.784,3.979,3.979c0,2.193-1.785,3.979-3.979,3.979 c-2.194,0-3.979-1.785-3.979-3.979C34.365,26.69,36.15,24.907,38.343,24.907z"></path> <path d="M38.343,31.079c1.21,0,2.194-0.984,2.194-2.194c0-1.211-0.983-2.195-2.194-2.195s-2.194,0.983-2.194,2.195 C36.149,30.096,37.133,31.079,38.343,31.079z M38.343,28.689c0.106,0,0.194,0.087,0.194,0.195c0,0.216-0.39,0.216-0.39,0 C38.149,28.776,38.237,28.689,38.343,28.689z"></path> <path d="M46.323,39.042c0,1.093,0.889,1.979,1.979,1.979c1.092,0,1.979-0.888,1.979-1.979c0-1.091-0.89-1.979-1.979-1.979 C47.209,37.063,46.323,37.954,46.323,39.042z M48.301,40.023l-0.02-0.979c0-0.011,0.008-0.021,0.021-0.021L48.301,40.023z"></path> <path d="M17.532,32.66c0.552,0,1-0.448,1-1v-2.774c0-0.553-0.448-1-1-1c-0.552,0-1,0.447-1,1v2.773 C16.532,32.209,16.98,32.66,17.532,32.66z"></path> <path d="M7.453,33.537l2.152,2.151c0.194,0.194,0.45,0.293,0.707,0.293c0.256,0,0.512-0.099,0.706-0.293 c0.392-0.392,0.392-1.022,0-1.414l-2.151-2.151c-0.392-0.392-1.022-0.392-1.414,0C7.063,32.514,7.063,33.146,7.453,33.537z"></path> <path d="M24.104,36.408c0.256,0,0.512-0.099,0.706-0.293l2.607-2.608c0.392-0.391,0.392-1.022,0-1.414 c-0.391-0.391-1.021-0.391-1.414,0l-2.606,2.608c-0.393,0.391-0.393,1.022,0,1.414C23.592,36.31,23.847,36.408,24.104,36.408z"></path> </g> </g> </g></svg>